<?xml version="1.0" standalone="no"?>
<!DOCTYPE svg PUBLIC "-//W3C//DTD SVG 20010904//EN"
 "http://www.w3.org/TR/2001/REC-SVG-20010904/DTD/svg10.dtd">
<svg version="1.0" xmlns="http://www.w3.org/2000/svg"
 width="8000.000000pt" height="4500.000000pt" viewBox="0 0 8000.000000 4500.000000"
 preserveAspectRatio="xMidYMid meet">

<g transform="translate(0.000000,4500.000000) scale(0.100000,-0.100000)"
fill="#000000" stroke="none">
<path d="M60600 32164 c-19 -2 -87 -9 -150 -15 -476 -44 -987 -204 -1385 -431
-336 -193 -656 -452 -938 -761 l-80 -88 529 -521 c291 -287 601 -593 690 -680
l160 -159 61 78 c345 444 817 673 1386 673 483 0 906 -171 1260 -509 291 -278
498 -690 538 -1071 6 -58 14 -130 17 -160 l7 -54 808 743 c444 408 807 746
807 750 0 20 -156 316 -217 413 -176 279 -316 452 -567 704 -397 396 -790 659
-1269 848 -273 107 -546 174 -907 222 -109 15 -665 28 -750 18z"/>
<path d="M29380 29565 l0 -2505 761 -778 c419 -427 824 -840 900 -917 l139
-140 0 3423 0 3422 -900 0 -900 0 0 -2505z"/>
<path d="M20361 27692 c-1009 -2385 -1836 -4346 -1838 -4357 -3 -15 155 -179
665 -688 l668 -668 1149 2623 c631 1443 1158 2643 1171 2668 l22 45 16 -35 c9
-19 803 -1839 1765 -4045 l1749 -4010 941 -3 c895 -2 941 -1 932 15 -5 10
-986 2336 -2181 5168 -2070 4907 -3189 7554 -3214 7602 -10 19 -245 -531
-1845 -4315z"/>
<path d="M57347 29614 c-219 -678 -241 -1440 -61 -2142 143 -559 429 -1072
842 -1512 616 -656 1339 -1051 2150 -1174 183 -28 287 -37 547 -46 273 -10
389 -24 544 -66 409 -111 786 -393 1033 -774 374 -576 378 -1366 10 -1935 -67
-105 -125 -177 -225 -281 -299 -313 -654 -494 -1070 -545 -130 -16 -453 -7
-567 16 -391 77 -692 243 -980 541 -309 320 -461 669 -495 1142 -5 70 -11 92
-20 90 -8 -2 -338 -345 -735 -763 -397 -418 -741 -779 -763 -803 l-41 -42 28
-57 c222 -454 638 -953 1083 -1301 541 -423 1112 -656 1823 -744 168 -21 731
-18 900 5 772 105 1423 398 2000 903 621 542 1074 1348 1209 2151 76 448 72
941 -10 1388 -145 789 -551 1488 -1189 2048 -526 462 -1111 751 -1760 871
-198 36 -393 55 -675 65 -276 10 -379 25 -553 77 -548 166 -989 590 -1178
1131 l-29 83 -892 891 -891 892 -35 -109z"/>
<path d="M34214 29424 c-355 -479 -668 -1063 -869 -1618 -373 -1029 -471
-2192 -279 -3306 250 -1449 1059 -2841 2209 -3800 691 -577 1522 -1019 2370
-1260 1013 -288 2171 -316 3215 -80 819 186 1629 562 2334 1084 l78 59 -707
707 -708 708 -66 -42 c-303 -193 -696 -377 -1046 -489 -662 -212 -1431 -259
-2165 -131 -722 125 -1371 420 -1945 885 -595 482 -1058 1081 -1334 1726 -333
781 -432 1699 -275 2573 99 550 319 1111 622 1584 l44 69 -704 704 c-386 386
-706 703 -710 703 -5 0 -33 -34 -64 -76z"/>
<path d="M29380 22187 l0 -2987 900 0 900 0 0 2088 0 2087 -900 900 -900 900
0 -2988z"/>
<path d="M17972 22034 c-5 -11 -272 -640 -592 -1399 -320 -759 -586 -1388
-592 -1398 -8 -16 37 -17 924 -15 l932 3 303 680 c166 374 315 708 329 743
l27 63 -169 172 c-94 95 -391 396 -661 671 -426 432 -492 496 -501 480z"/>
<path d="M38761 18963 c18 -21 69 -78 114 -126 l82 -88 56 3 56 3 -77 122 -77
123 -94 0 -93 0 33 -37z"/>
<path d="M25220 18956 c0 -21 -58 -66 -86 -66 -13 0 -71 16 -128 35 -123 41
-156 43 -216 13 -35 -18 -51 -35 -72 -77 -39 -77 -37 -91 11 -91 31 0 41 4 46
20 9 28 53 60 85 60 15 0 71 -16 126 -35 103 -36 154 -42 201 -24 53 20 100
80 117 152 6 26 5 27 -39 27 -32 0 -45 -4 -45 -14z"/>
<path d="M18045 18626 c-103 -33 -179 -97 -221 -189 -27 -57 -29 -71 -29 -182
0 -110 2 -124 27 -171 29 -56 78 -104 136 -133 20 -10 120 -49 221 -86 211
-78 240 -99 261 -185 20 -82 9 -181 -27 -238 -53 -86 -186 -129 -315 -103
-118 25 -171 96 -183 246 l-7 85 -71 0 -70 0 6 -97 c6 -111 22 -164 68 -228
61 -84 161 -133 293 -142 154 -10 283 33 366 124 65 71 91 141 97 264 7 124
-12 193 -69 255 -56 60 -116 93 -318 169 -95 37 -185 76 -201 88 -16 11 -39
41 -50 65 -18 36 -21 56 -17 121 8 146 73 211 219 219 154 9 232 -53 254 -200
l7 -48 69 0 69 0 0 48 c0 27 -7 73 -16 102 -45 153 -170 231 -367 229 -51 0
-110 -6 -132 -13z"/>
<path d="M19075 18626 c-103 -33 -179 -97 -221 -189 -27 -57 -29 -71 -29 -182
0 -110 2 -124 27 -171 29 -56 78 -104 136 -133 20 -10 120 -49 221 -86 211
-78 240 -99 261 -185 20 -82 9 -181 -27 -238 -53 -86 -186 -129 -315 -103
-118 25 -171 96 -183 246 l-7 85 -71 0 -70 0 6 -97 c6 -111 22 -164 68 -228
61 -84 161 -133 293 -142 154 -10 283 33 366 124 65 71 91 141 97 264 7 124
-12 193 -69 255 -56 60 -116 93 -318 169 -95 37 -185 76 -201 88 -16 11 -39
41 -50 65 -18 36 -21 56 -17 121 8 146 73 211 219 219 154 9 232 -53 254 -200
l7 -48 69 0 69 0 0 48 c0 27 -7 73 -16 102 -45 153 -170 231 -367 229 -51 0
-110 -6 -132 -13z"/>
<path d="M20148 18621 c-188 -60 -274 -211 -299 -523 -14 -166 1 -409 31 -537
55 -227 176 -343 377 -358 138 -11 278 38 349 121 106 124 152 352 141 701
-12 367 -100 539 -306 599 -75 22 -219 20 -293 -3z m236 -122 c51 -14 120 -79
151 -143 48 -98 59 -180 59 -426 1 -370 -39 -505 -168 -573 -63 -33 -194 -31
-261 3 -124 64 -165 207 -166 569 0 222 14 325 57 421 30 67 96 134 148 149
44 13 134 13 180 0z"/>
<path d="M21263 18620 c-189 -67 -275 -250 -289 -615 -14 -352 36 -585 149
-699 142 -141 422 -139 552 5 72 80 103 174 119 362 l5 57 -73 0 -73 0 -11
-95 c-23 -184 -78 -271 -187 -296 -155 -35 -266 59 -313 264 -24 104 -23 508
1 624 41 197 121 282 262 283 86 0 155 -34 194 -95 30 -47 51 -120 51 -175 l0
-30 76 0 77 0 -7 66 c-18 174 -116 307 -259 349 -72 21 -209 19 -274 -5z"/>
<path d="M23833 18620 c-187 -67 -274 -249 -289 -605 -11 -257 19 -492 78
-609 49 -98 145 -174 243 -191 22 -4 44 -10 48 -12 4 -3 -13 -34 -39 -69 -56
-80 -51 -92 35 -86 54 4 62 2 85 -21 35 -35 35 -79 -1 -107 -25 -20 -36 -21
-98 -17 -38 4 -79 7 -89 9 -24 4 -46 -50 -26 -62 28 -17 133 -32 188 -27 113
10 182 68 182 155 0 87 -56 136 -157 136 -29 0 -53 2 -53 4 0 2 13 21 30 42
25 31 39 39 87 49 71 14 149 57 193 107 67 77 98 173 114 357 l5 57 -73 0 -73
0 -11 -95 c-23 -184 -78 -271 -187 -296 -155 -35 -266 59 -313 264 -24 104
-23 508 1 624 41 197 121 282 262 283 86 0 155 -34 194 -95 30 -47 51 -120 51
-175 l0 -30 76 0 77 0 -7 66 c-18 174 -116 307 -259 349 -72 21 -209 19 -274
-5z"/>
<path d="M25928 18621 c-188 -60 -274 -211 -299 -523 -14 -166 1 -409 31 -537
55 -227 176 -343 377 -358 138 -11 278 38 349 121 106 124 152 352 141 701
-12 367 -100 539 -306 599 -75 22 -219 20 -293 -3z m236 -122 c51 -14 120 -79
151 -143 48 -98 59 -180 59 -426 1 -370 -39 -505 -168 -573 -63 -33 -194 -31
-261 3 -124 64 -165 207 -166 569 0 222 14 325 57 421 30 67 96 134 148 149
44 13 134 13 180 0z"/>
<path d="M31673 18620 c-189 -67 -275 -250 -289 -615 -14 -352 36 -585 149
-699 142 -141 422 -139 552 5 72 80 103 174 119 362 l5 57 -73 0 -73 0 -11
-95 c-23 -184 -78 -271 -187 -296 -155 -35 -266 59 -313 264 -24 104 -23 508
1 624 41 197 121 282 262 283 86 0 155 -34 194 -95 30 -47 51 -120 51 -175 l0
-30 76 0 77 0 -7 66 c-18 174 -116 307 -259 349 -72 21 -209 19 -274 -5z"/>
<path d="M37268 18621 c-188 -60 -274 -211 -299 -523 -14 -166 1 -409 31 -537
55 -227 176 -343 377 -358 138 -11 278 38 349 121 106 124 152 352 141 701
-12 367 -100 539 -306 599 -75 22 -219 20 -293 -3z m236 -122 c51 -14 120 -79
151 -143 48 -98 59 -180 59 -426 1 -370 -39 -505 -168 -573 -63 -33 -194 -31
-261 3 -124 64 -165 207 -166 569 0 222 14 325 57 421 30 67 96 134 148 149
44 13 134 13 180 0z"/>
<path d="M40333 18620 c-189 -67 -275 -250 -289 -615 -14 -352 36 -585 149
-699 142 -141 422 -139 552 5 72 80 103 174 119 362 l5 57 -73 0 -73 0 -11
-95 c-23 -184 -78 -271 -187 -296 -155 -35 -266 59 -313 264 -24 104 -23 508
1 624 41 197 121 282 262 283 86 0 155 -34 194 -95 30 -47 51 -120 51 -175 l0
-30 76 0 77 0 -7 66 c-18 174 -116 307 -259 349 -72 21 -209 19 -274 -5z"/>
<path d="M56368 18621 c-188 -60 -274 -211 -299 -523 -14 -166 1 -409 31 -537
55 -227 176 -343 377 -358 138 -11 278 38 349 121 106 124 152 352 141 701
-12 367 -100 539 -306 599 -75 22 -219 20 -293 -3z m236 -122 c51 -14 120 -79
151 -143 48 -98 59 -180 59 -426 1 -370 -39 -505 -168 -573 -63 -33 -194 -31
-261 3 -124 64 -165 207 -166 569 0 222 14 325 57 421 30 67 96 134 148 149
44 13 134 13 180 0z"/>
<path d="M58018 18621 c-188 -60 -274 -211 -299 -523 -14 -166 1 -409 31 -537
55 -227 176 -343 377 -358 138 -11 278 38 349 121 106 124 152 352 141 701
-12 367 -100 539 -306 599 -75 22 -219 20 -293 -3z m236 -122 c51 -14 120 -79
151 -143 48 -98 59 -180 59 -426 1 -370 -39 -505 -168 -573 -63 -33 -194 -31
-261 3 -124 64 -165 207 -166 569 0 222 14 325 57 421 30 67 96 134 148 149
44 13 134 13 180 0z"/>
<path d="M59575 18626 c-103 -33 -179 -97 -221 -189 -27 -57 -29 -71 -29 -182
0 -110 2 -124 27 -171 29 -56 78 -104 136 -133 20 -10 120 -49 221 -86 211
-78 240 -99 261 -185 20 -82 9 -181 -27 -238 -53 -86 -186 -129 -315 -103
-118 25 -171 96 -183 246 l-7 85 -71 0 -70 0 6 -97 c6 -111 22 -164 68 -228
61 -84 161 -133 293 -142 154 -10 283 33 366 124 65 71 91 141 97 264 7 124
-12 193 -69 255 -56 60 -116 93 -318 169 -95 37 -185 76 -201 88 -16 11 -39
41 -50 65 -18 36 -21 56 -17 121 8 146 73 211 219 219 154 9 232 -53 254 -200
l7 -48 69 0 69 0 0 48 c0 27 -7 73 -16 102 -45 153 -170 231 -367 229 -51 0
-110 -6 -132 -13z"/>
<path d="M60648 18621 c-188 -60 -274 -211 -299 -523 -14 -166 1 -409 31 -537
55 -227 176 -343 377 -358 138 -11 278 38 349 121 106 124 152 352 141 701
-12 367 -100 539 -306 599 -75 22 -219 20 -293 -3z m236 -122 c51 -14 120 -79
151 -143 48 -98 59 -180 59 -426 1 -370 -39 -505 -168 -573 -63 -33 -194 -31
-261 3 -124 64 -165 207 -166 569 0 222 14 325 57 421 30 67 96 134 148 149
44 13 134 13 180 0z"/>
<path d="M61753 18620 c-189 -67 -275 -250 -289 -615 -14 -352 36 -585 149
-699 142 -141 422 -139 552 5 72 80 103 174 119 362 l5 57 -73 0 -73 0 -11
-95 c-23 -184 -78 -271 -187 -296 -155 -35 -266 59 -313 264 -24 104 -23 508
1 624 41 197 121 282 262 283 86 0 155 -34 194 -95 30 -47 51 -120 51 -175 l0
-30 76 0 77 0 -7 66 c-18 174 -116 307 -259 349 -72 21 -209 19 -274 -5z"/>
<path d="M17056 18603 c-41 -137 -386 -1355 -386 -1363 0 -6 32 -10 79 -10
l79 0 49 198 49 197 225 3 225 2 54 -200 54 -200 83 0 82 0 -20 68 c-10 37
-99 349 -196 695 l-177 627 -97 0 c-84 0 -98 -2 -103 -17z m193 -458 c45 -187
85 -348 87 -357 5 -17 -8 -18 -180 -18 -120 0 -186 4 -186 10 0 9 139 572 171
695 8 28 13 35 19 25 4 -8 44 -168 89 -355z"/>
<path d="M22090 17925 l0 -695 70 0 70 0 0 695 0 695 -70 0 -70 0 0 -695z"/>
<path d="M22826 18603 c-41 -137 -386 -1355 -386 -1363 0 -6 32 -10 79 -10
l79 0 49 198 49 197 225 3 225 2 54 -200 54 -200 83 0 82 0 -20 68 c-10 37
-99 349 -196 695 l-177 627 -97 0 c-84 0 -98 -2 -103 -17z m193 -458 c45 -187
85 -348 87 -357 5 -17 -8 -18 -180 -18 -120 0 -186 4 -186 10 0 9 139 572 171
695 8 28 13 35 19 25 4 -8 44 -168 89 -355z"/>
<path d="M24896 18603 c-41 -137 -386 -1355 -386 -1363 0 -6 32 -10 79 -10
l79 0 49 198 49 197 225 3 225 2 54 -200 54 -200 83 0 82 0 -20 68 c-10 37
-99 349 -196 695 l-177 627 -97 0 c-84 0 -98 -2 -103 -17z m193 -458 c45 -187
85 -348 87 -357 5 -17 -8 -18 -180 -18 -120 0 -186 4 -186 10 0 9 139 572 171
695 8 28 13 35 19 25 4 -8 44 -168 89 -355z"/>
<path d="M27260 17926 l0 -696 208 0 c240 0 304 8 389 50 172 85 253 311 253
706 0 288 -61 462 -194 554 -92 62 -146 73 -413 78 l-243 4 0 -696z m515 535
c124 -57 170 -187 182 -501 11 -337 -36 -498 -168 -564 -51 -25 -59 -26 -221
-26 l-168 0 0 555 0 555 168 0 c141 0 173 -3 207 -19z"/>
<path d="M28380 17925 l0 -695 345 0 345 0 0 70 0 70 -270 0 -270 0 0 260 0
260 250 0 250 0 0 65 0 65 -250 0 -250 0 0 230 0 230 270 0 270 0 0 70 0 70
-345 0 -345 0 0 -695z"/>
<path d="M29820 17925 l0 -695 70 0 70 0 0 695 0 695 -70 0 -70 0 0 -695z"/>
<path d="M30290 17925 l0 -695 70 0 70 0 1 668 1 667 23 -90 c17 -68 247 -737
417 -1217 l10 -28 124 0 124 0 0 695 0 695 -75 0 -75 0 -1 -647 c0 -362 -4
-639 -9 -628 -4 11 -104 297 -220 635 -117 338 -215 621 -217 628 -4 9 -38 12
-124 12 l-119 0 0 -695z"/>
<path d="M32450 17925 l0 -695 345 0 345 0 0 70 0 70 -270 0 -270 0 0 260 0
260 250 0 250 0 0 65 0 65 -250 0 -250 0 0 230 0 230 270 0 270 0 0 70 0 70
-345 0 -345 0 0 -695z"/>
<path d="M33390 17925 l0 -695 70 0 70 0 1 668 1 667 23 -90 c17 -68 247 -737
417 -1217 l10 -28 124 0 124 0 0 695 0 695 -75 0 -75 0 -1 -647 c0 -362 -4
-639 -9 -628 -4 11 -104 297 -220 635 -117 338 -215 621 -217 628 -4 9 -38 12
-124 12 l-119 0 0 -695z"/>
<path d="M34400 18550 l0 -70 180 0 180 0 0 -625 0 -625 75 0 75 0 0 625 0
625 180 0 180 0 0 70 0 70 -435 0 -435 0 0 -70z"/>
<path d="M35490 17925 l0 -695 70 0 70 0 0 695 0 695 -70 0 -70 0 0 -695z"/>
<path d="M35842 18598 c3 -13 92 -326 198 -695 l193 -673 91 0 92 0 197 688
c109 378 198 690 197 695 0 4 -35 7 -78 7 l-79 0 -152 -602 c-84 -332 -157
-620 -162 -642 -6 -21 -14 -35 -18 -30 -5 5 -79 294 -166 642 l-157 632 -80 0
c-78 0 -80 -1 -76 -22z"/>
<path d="M38856 18603 c-41 -137 -386 -1355 -386 -1363 0 -6 32 -10 79 -10
l79 0 49 198 49 197 225 3 225 2 54 -200 54 -200 83 0 82 0 -20 68 c-10 37
-99 349 -196 695 l-177 627 -97 0 c-84 0 -98 -2 -103 -17z m193 -458 c45 -187
85 -348 87 -357 5 -17 -8 -18 -180 -18 -120 0 -186 4 -186 10 0 9 139 572 171
695 8 28 13 35 19 25 4 -8 44 -168 89 -355z"/>
<path d="M41122 18048 c3 -568 3 -574 26 -629 44 -110 129 -177 259 -204 250
-53 466 39 523 222 19 62 20 92 20 624 l0 559 -75 0 -75 0 0 -546 c0 -386 -3
-558 -12 -585 -6 -22 -26 -57 -45 -78 -46 -55 -107 -76 -213 -76 -100 0 -164
26 -206 81 -53 69 -54 84 -54 666 l0 538 -76 0 -75 0 3 -572z"/>
<path d="M42260 17925 l0 -695 355 0 355 0 0 70 0 70 -285 0 -285 0 0 625 0
625 -70 0 -70 0 0 -695z"/>
<path d="M42920 18550 l0 -70 180 0 180 0 0 -625 0 -625 75 0 75 0 0 625 0
625 180 0 180 0 0 70 0 70 -435 0 -435 0 0 -70z"/>
<path d="M43972 18048 c3 -568 3 -574 26 -629 44 -110 129 -177 259 -204 250
-53 466 39 523 222 19 62 20 92 20 624 l0 559 -75 0 -75 0 0 -546 c0 -386 -3
-558 -12 -585 -6 -22 -26 -57 -45 -78 -46 -55 -107 -76 -213 -76 -100 0 -164
26 -206 81 -53 69 -54 84 -54 666 l0 538 -76 0 -75 0 3 -572z"/>
<path d="M45110 17926 l0 -696 75 0 75 0 0 311 0 312 173 -5 c190 -5 220 -13
274 -68 44 -45 60 -103 67 -241 7 -122 17 -198 36 -268 l11 -41 84 0 c91 0
101 7 65 45 -24 26 -35 81 -54 290 -9 88 -20 176 -26 195 -25 86 -82 134 -175
147 -25 3 -45 8 -45 12 0 3 26 14 58 23 74 22 133 73 169 146 25 51 28 67 28
162 0 206 -69 301 -254 347 -37 10 -143 16 -308 20 l-253 6 0 -697z m565 519
c73 -45 100 -104 100 -215 -1 -116 -33 -177 -120 -223 -36 -20 -59 -22 -217
-25 l-178 -4 0 252 0 252 183 -4 184 -3 48 -30z"/>
<path d="M46506 18603 c-41 -137 -386 -1355 -386 -1363 0 -6 32 -10 79 -10
l79 0 49 198 49 197 225 3 225 2 54 -200 54 -200 83 0 82 0 -20 68 c-10 37
-99 349 -196 695 l-177 627 -97 0 c-84 0 -98 -2 -103 -17z m193 -458 c45 -187
85 -348 87 -357 5 -17 -8 -18 -180 -18 -120 0 -186 4 -186 10 0 9 139 572 171
695 8 28 13 35 19 25 4 -8 44 -168 89 -355z"/>
<path d="M48466 18603 c-41 -137 -386 -1355 -386 -1363 0 -6 32 -10 79 -10
l79 0 49 198 49 197 225 3 225 2 54 -200 54 -200 83 0 82 0 -20 68 c-10 37
-99 349 -196 695 l-177 627 -97 0 c-84 0 -98 -2 -103 -17z m193 -458 c45 -187
85 -348 87 -357 5 -17 -8 -18 -180 -18 -120 0 -186 4 -186 10 0 9 139 572 171
695 8 28 13 35 19 25 4 -8 44 -168 89 -355z"/>
<path d="M49240 17926 l0 -696 75 0 75 0 0 311 0 312 173 -5 c190 -5 220 -13
274 -68 44 -45 60 -103 67 -241 7 -122 17 -198 36 -268 l11 -41 84 0 c91 0
101 7 65 45 -24 26 -35 81 -54 290 -9 88 -20 176 -26 195 -25 86 -82 134 -175
147 -25 3 -45 8 -45 12 0 3 26 14 58 23 74 22 133 73 169 146 25 51 28 67 28
162 0 206 -69 301 -254 347 -37 10 -143 16 -308 20 l-253 6 0 -697z m565 519
c73 -45 100 -104 100 -215 -1 -116 -33 -177 -120 -223 -36 -20 -59 -22 -217
-25 l-178 -4 0 252 0 252 183 -4 184 -3 48 -30z"/>
<path d="M50210 18550 l0 -70 180 0 180 0 0 -625 0 -625 75 0 75 0 0 625 0
625 180 0 180 0 0 70 0 70 -435 0 -435 0 0 -70z"/>
<path d="M51250 17925 l0 -695 345 0 345 0 0 70 0 70 -270 0 -270 0 0 260 0
260 250 0 250 0 0 65 0 65 -250 0 -250 0 0 230 0 230 270 0 270 0 0 70 0 70
-345 0 -345 0 0 -695z"/>
<path d="M52640 17925 l0 -695 345 0 345 0 0 70 0 70 -270 0 -270 0 0 260 0
260 250 0 250 0 0 65 0 65 -250 0 -250 0 0 230 0 230 270 0 270 0 0 70 0 70
-345 0 -345 0 0 -695z"/>
<path d="M54306 18603 c-41 -137 -386 -1355 -386 -1363 0 -6 32 -10 79 -10
l79 0 49 198 49 197 225 3 225 2 54 -200 54 -200 83 0 82 0 -20 68 c-10 37
-99 349 -196 695 l-177 627 -97 0 c-84 0 -98 -2 -103 -17z m193 -458 c45 -187
85 -348 87 -357 5 -17 -8 -18 -180 -18 -120 0 -186 4 -186 10 0 9 139 572 171
695 8 28 13 35 19 25 4 -8 44 -168 89 -355z"/>
<path d="M55080 17925 l0 -695 75 0 75 0 0 295 0 295 98 0 c125 0 262 15 331
36 42 12 68 29 111 72 77 77 104 155 104 297 0 55 -5 118 -12 140 -20 70 -74
148 -125 182 -86 58 -177 72 -464 73 l-193 0 0 -695z m498 540 c57 -17 107
-61 130 -115 21 -50 20 -203 -2 -255 -38 -88 -96 -122 -234 -135 -53 -5 -130
-10 -169 -10 l-73 0 0 265 0 265 148 0 c104 0 164 -5 200 -15z"/>
<path d="M57270 17925 l0 -695 70 0 70 0 0 695 0 695 -70 0 -70 0 0 -695z"/>
<path d="M62580 17925 l0 -695 70 0 70 0 0 695 0 695 -70 0 -70 0 0 -695z"/>
<path d="M63326 18603 c-41 -137 -386 -1355 -386 -1363 0 -6 32 -10 79 -10
l79 0 49 198 49 197 225 3 225 2 54 -200 54 -200 83 0 82 0 -20 68 c-10 37
-99 349 -196 695 l-177 627 -97 0 c-84 0 -98 -2 -103 -17z m193 -458 c45 -187
85 -348 87 -357 5 -17 -8 -18 -180 -18 -120 0 -186 4 -186 10 0 9 139 572 171
695 8 28 13 35 19 25 4 -8 44 -168 89 -355z"/>
<path d="M64100 17925 l0 -695 355 0 355 0 0 70 0 70 -285 0 -285 0 0 625 0
625 -70 0 -70 0 0 -695z"/>
<path d="M47270 17320 l0 -90 45 0 c44 0 45 -1 45 -32 0 -58 -19 -105 -55
-137 -26 -22 -35 -39 -35 -61 0 -38 15 -38 67 -1 69 50 87 102 91 269 l4 142
-81 0 -81 0 0 -90z"/>
</g>
</svg>
