<svg id="visual" viewBox="0 0 1920 1080" width="1920" height="1080" xmlns="http://www.w3.org/2000/svg" xmlns:xlink="http://www.w3.org/1999/xlink" version="1.1"><path d="M0 690L45.7 706C91.3 722 182.7 754 274.2 744.7C365.7 735.3 457.3 684.7 548.8 659.8C640.3 635 731.7 636 823 662.8C914.3 689.7 1005.7 742.3 1097 768.8C1188.3 795.3 1279.7 795.7 1371.2 774.8C1462.7 754 1554.3 712 1645.8 702C1737.3 692 1828.7 714 1874.3 725L1920 736L1920 1081L1874.3 1081C1828.7 1081 1737.3 1081 1645.8 1081C1554.3 1081 1462.7 1081 1371.2 1081C1279.7 1081 1188.3 1081 1097 1081C1005.7 1081 914.3 1081 823 1081C731.7 1081 640.3 1081 548.8 1081C457.3 1081 365.7 1081 274.2 1081C182.7 1081 91.3 1081 45.7 1081L0 1081Z" fill="#715df2"></path><path d="M0 718L45.7 738.5C91.3 759 182.7 800 274.2 802.2C365.7 804.3 457.3 767.7 548.8 766.2C640.3 764.7 731.7 798.3 823 819.8C914.3 841.3 1005.7 850.7 1097 837.8C1188.3 825 1279.7 790 1371.2 775.2C1462.7 760.3 1554.3 765.7 1645.8 781.2C1737.3 796.7 1828.7 822.3 1874.3 835.2L1920 848L1920 1081L1874.3 1081C1828.7 1081 1737.3 1081 1645.8 1081C1554.3 1081 1462.7 1081 1371.2 1081C1279.7 1081 1188.3 1081 1097 1081C1005.7 1081 914.3 1081 823 1081C731.7 1081 640.3 1081 548.8 1081C457.3 1081 365.7 1081 274.2 1081C182.7 1081 91.3 1081 45.7 1081L0 1081Z" fill="#6c50f6"></path><path d="M0 890L45.7 894.2C91.3 898.3 182.7 906.7 274.2 904.3C365.7 902 457.3 889 548.8 889.8C640.3 890.7 731.7 905.3 823 902.3C914.3 899.3 1005.7 878.7 1097 868C1188.3 857.3 1279.7 856.7 1371.2 866.3C1462.7 876 1554.3 896 1645.8 887.3C1737.3 878.7 1828.7 841.3 1874.3 822.7L1920 804L1920 1081L1874.3 1081C1828.7 1081 1737.3 1081 1645.8 1081C1554.3 1081 1462.7 1081 1371.2 1081C1279.7 1081 1188.3 1081 1097 1081C1005.7 1081 914.3 1081 823 1081C731.7 1081 640.3 1081 548.8 1081C457.3 1081 365.7 1081 274.2 1081C182.7 1081 91.3 1081 45.7 1081L0 1081Z" fill="#6940fa"></path><path d="M0 911L45.7 916.3C91.3 921.7 182.7 932.3 274.2 934.5C365.7 936.7 457.3 930.3 548.8 923.5C640.3 916.7 731.7 909.3 823 910.8C914.3 912.3 1005.7 922.7 1097 921.7C1188.3 920.7 1279.7 908.3 1371.2 904.3C1462.7 900.3 1554.3 904.7 1645.8 903.8C1737.3 903 1828.7 897 1874.3 894L1920 891L1920 1081L1874.3 1081C1828.7 1081 1737.3 1081 1645.8 1081C1554.3 1081 1462.7 1081 1371.2 1081C1279.7 1081 1188.3 1081 1097 1081C1005.7 1081 914.3 1081 823 1081C731.7 1081 640.3 1081 548.8 1081C457.3 1081 365.7 1081 274.2 1081C182.7 1081 91.3 1081 45.7 1081L0 1081Z" fill="#672bfd"></path><path d="M0 1020L45.7 1016.3C91.3 1012.7 182.7 1005.3 274.2 1000.8C365.7 996.3 457.3 994.7 548.8 993.8C640.3 993 731.7 993 823 985.8C914.3 978.7 1005.7 964.3 1097 968.8C1188.3 973.3 1279.7 996.7 1371.2 1008.3C1462.7 1020 1554.3 1020 1645.8 1014C1737.3 1008 1828.7 996 1874.3 990L1920 984L1920 1081L1874.3 1081C1828.7 1081 1737.3 1081 1645.8 1081C1554.3 1081 1462.7 1081 1371.2 1081C1279.7 1081 1188.3 1081 1097 1081C1005.7 1081 914.3 1081 823 1081C731.7 1081 640.3 1081 548.8 1081C457.3 1081 365.7 1081 274.2 1081C182.7 1081 91.3 1081 45.7 1081L0 1081Z" fill="#6600ff"></path></svg>